<svg width="48" height="48" viewBox="0 0 48 48" fill="none" xmlns="http://www.w3.org/2000/svg">
<path d="M38.2596 0H9.74043C4.36094 0 0 4.36094 0 9.74043V38.2596C0 43.6391 4.36094 48 9.74043 48H38.2596C43.6391 48 48 43.6391 48 38.2596V9.74043C48 4.36094 43.6391 0 38.2596 0Z" fill="url(#paint0_linear_17169_364)"/>
<path d="M19.9303 17.2896C18.103 17.2367 15.7431 21.9875 15.1176 23.5632C14.7674 24.4422 15.8525 25.0732 16.2027 24.196C16.7826 22.7334 18.7668 18.6519 19.9303 18.6574C21.092 18.6647 23.0087 22.768 23.5759 24.2361C23.9151 25.1188 25.0094 24.4987 24.6683 23.6161C24.061 22.0349 21.7522 17.2586 19.9285 17.2896M15.0355 20.7255C15.03 20.6708 15.0209 20.6179 15.0118 20.5632C14.9498 20.2167 14.8404 19.9048 14.6926 19.6221C14.689 19.6167 14.6853 19.6112 14.6817 19.6039C14.6416 19.531 14.5996 19.4617 14.5559 19.3942C14.5267 19.3486 14.4957 19.3048 14.4665 19.2629C14.4464 19.2337 14.4246 19.2063 14.4027 19.179C14.3589 19.1225 14.3151 19.0677 14.2732 19.0185C14.2258 18.9638 14.1784 18.9109 14.1273 18.8598C14.1163 18.8489 14.1072 18.838 14.0963 18.827C12.1741 16.9285 7.98686 17.1218 6.78869 17.627C5.97896 17.968 6.25799 18.9711 7.14431 18.579C8.58686 18.2142 9.97653 18.2215 11.4008 18.579C12.5625 18.8708 13.7808 19.8866 13.7808 20.979C13.6969 23.6981 10.1005 23.8057 8.64157 23.4519V20.069C8.64157 19.2611 7.60206 19.2538 7.60206 20.0635V23.4647C7.60206 24.1468 7.95403 24.3948 8.4209 24.5024C9.51878 24.7541 14.1291 25.0221 14.948 21.7468C14.9644 21.6848 14.9753 21.6228 14.9881 21.5608C14.999 21.5042 15.0118 21.4495 15.0209 21.3911C15.0519 21.1687 15.0574 20.9571 15.041 20.7601C15.041 20.7492 15.0373 20.7364 15.0373 20.7255M34.3723 18.0228C34.3723 17.0799 33.1869 17.0854 33.1869 18.0063V23.9535C33.1869 24.8452 34.3723 24.8781 34.3723 23.9863V18.0209V18.0228ZM31.4051 17.6799C30.889 19.1516 29.1145 23.2623 28.0404 23.2732C26.9644 23.2842 25.1315 19.21 24.5863 17.7474C24.258 16.8702 23.2586 17.5085 23.585 18.3839C24.1723 19.9559 26.3753 24.6994 28.0659 24.6392C29.7528 24.6647 31.8647 19.8793 32.4209 18.2963C32.7309 17.4136 31.7188 16.7972 31.4069 17.6799" fill="white"/>
<path d="M15.0409 26.8549H15.6318C15.7758 27.0847 15.8616 27.3127 15.9181 27.5899C16.2901 27.0847 16.8537 26.751 17.512 26.751C18.5898 26.751 19.4579 27.5242 19.4579 29.2312C19.4579 31.1498 18.3217 31.9595 16.9011 31.9595C16.6056 31.9595 16.3102 31.9303 16.0129 31.8647V33.8963H15.1065V28.4762C15.1065 27.9893 15.0974 27.4841 15.0391 26.8531L15.0409 26.8549ZM16.912 31.1954C17.7801 31.1954 18.5716 30.8142 18.5716 29.2969C18.5716 27.9984 18.0755 27.5789 17.284 27.5789C16.8555 27.5789 16.3959 27.7504 16.0147 27.9802V31.0805C16.3302 31.1662 16.6439 31.1954 16.912 31.1954Z" fill="white"/>
<path d="M20.2969 30.6041V24.708H21.2033V30.4709C21.2033 30.987 21.3364 31.1676 21.6993 31.1676C21.8416 31.1676 22.033 31.1293 22.2628 31.091V31.8642C21.9765 31.9408 21.7194 31.97 21.4896 31.97C20.7838 31.97 20.2969 31.6272 20.2969 30.6059V30.6041Z" fill="white"/>
<path d="M25.3377 30.8233C25.0715 31.5583 24.4605 31.9595 23.6964 31.9595C22.9997 31.9595 22.418 31.5783 22.418 30.7577C22.418 29.1072 24.4605 29.3552 25.2812 28.6878C25.2721 27.7905 24.6903 27.5808 24.021 27.5808C23.5924 27.5808 23.1146 27.6865 22.6478 27.7905V26.999C23.173 26.8367 23.669 26.751 24.1177 26.751C25.3013 26.751 26.131 27.3419 26.131 28.8026V30.2634C26.131 30.7303 26.1402 31.1789 26.2259 31.8574H25.635C25.5019 31.5419 25.3961 31.2665 25.3396 30.827L25.3377 30.8233ZM23.8879 31.2245C24.528 31.2245 25.2812 30.6428 25.2812 29.7546V29.3917C24.4605 29.9644 23.2769 29.7546 23.2769 30.6701C23.2769 31.0422 23.5158 31.2245 23.8879 31.2245Z" fill="white"/>
<path d="M27.3881 30.0222V27.5694H26.5V27.1116C26.7571 27.0168 27.0818 26.9402 27.4356 26.8928V25.4229H28.2945V26.8545H30.2514V27.5694H28.2945V30.0314C28.2945 30.8703 28.6483 31.1292 29.2392 31.1292C29.5547 31.1292 29.9359 31.0727 30.3553 30.9578V31.7402C29.8775 31.8842 29.4581 31.959 29.0769 31.959C27.9991 31.959 27.3881 31.3681 27.3881 30.0222Z" fill="white"/>
<path d="M33.4783 30.8233C33.2121 31.5583 32.6011 31.9595 31.837 31.9595C31.1404 31.9595 30.5586 31.5783 30.5586 30.7577C30.5586 29.1072 32.6011 29.3552 33.4218 28.6878C33.4127 27.7905 32.8309 27.5808 32.1616 27.5808C31.7331 27.5808 31.2552 27.6865 30.7884 27.7905V26.999C31.3136 26.8367 31.8097 26.751 32.2583 26.751C33.4419 26.751 34.2717 27.3419 34.2717 28.8026V30.2634C34.2717 30.7303 34.2808 31.1789 34.3665 31.8574H33.7756C33.6425 31.5419 33.5367 31.2665 33.4802 30.827L33.4783 30.8233ZM32.0285 31.2245C32.6686 31.2245 33.4218 30.6428 33.4218 29.7546V29.3917C32.6011 29.9644 31.4176 29.7546 31.4176 30.6701C31.4176 31.0422 31.6565 31.2245 32.0285 31.2245Z" fill="white"/>
<path d="M24.9983 10.826C26.3041 10.8333 28.994 11.8072 31.8627 13.392C31.901 13.4139 31.9466 13.3792 31.9375 13.3354C31.8755 13.0746 31.7551 12.4218 31.9813 12.0333C32.1363 11.8345 32.4263 11.7342 32.8439 11.7342H35.3752C35.8895 11.7342 36.2105 11.8236 36.3564 12.0096C36.5788 12.2904 36.4348 12.8467 36.2688 13.4904C36.0792 14.24 35.9351 15.1208 35.8767 15.9087L35.8694 15.9999L35.9442 16.0546C35.9643 16.0692 38.0013 17.5427 39.1175 18.4655C40.5108 19.6181 41.0944 20.7087 40.7606 21.5385C40.4232 22.381 39.132 22.9208 37.4798 22.9208C37.3448 22.9208 37.208 22.9172 37.0676 22.9099L35.8767 22.8497L35.8822 23.0284C35.9059 23.9695 36.1886 25.8661 37.8153 28.0072C39.3381 29.7944 39.5624 31.8661 38.4281 33.6917C37.3521 35.4224 34.9868 36.8795 31.7934 36.8795C31.0038 36.8795 30.1649 36.7901 29.2804 36.595L29.2348 36.5841L29.1892 36.5987C27.9108 37.0181 25.9412 37.1749 25.0001 37.1749C23.9898 37.1749 22.0238 36.9962 20.8111 36.5987L20.7655 36.5841L20.7199 36.595C19.8372 36.7901 18.9983 36.8795 18.2086 36.8795C15.0153 36.8795 12.65 35.4224 11.574 33.6917C10.5819 32.0959 10.7205 30.0205 11.7728 28.3956C11.9533 28.1184 12.1813 27.8376 12.4147 27.5859C12.5333 27.4582 12.5624 27.2704 12.4858 27.1154L12.4822 27.1081C12.3509 26.8455 11.9971 26.7908 11.7965 27.006C11.7326 27.0734 11.6761 27.1391 11.636 27.1901C10.7861 28.1932 10.1807 29.612 10.0567 30.7464C9.93083 31.9063 10.2117 33.0771 10.8682 34.1312C12.2415 36.3397 15.0554 37.7111 18.2105 37.7111C19.0293 37.7111 19.8755 37.6218 20.7272 37.4449C22.0968 37.8534 24.05 38.0084 25.0019 38.0084C25.9539 38.0084 27.9035 37.857 29.2767 37.4449C30.1284 37.6218 30.9746 37.7129 31.7953 37.7129C34.9503 37.7129 37.7624 36.3415 39.1357 34.133C39.7922 33.0789 40.0713 31.9081 39.9472 30.7482C39.825 29.6157 39.3126 28.4886 38.4664 27.4874C37.3375 25.9956 36.9235 24.6515 36.7831 23.7287L37.0311 23.7415C37.1825 23.7488 37.3357 23.7543 37.4834 23.7543C39.5114 23.7543 41.0652 23.0248 41.5357 21.8503C41.8749 21.0059 41.822 19.6236 39.65 17.8272C38.7819 17.1087 37.3703 16.0673 36.7412 15.6078C36.8086 14.9677 36.9272 14.2892 37.0767 13.6984C37.2792 12.9142 37.4889 12.1008 37.0092 11.4953C36.5898 10.9664 35.8767 10.9044 35.377 10.9044H32.8457C32.1582 10.9044 31.6475 11.1142 31.3266 11.5263L31.2919 11.5701L31.2646 11.6175C31.1861 11.7525 31.1314 11.8965 31.0931 12.0461C28.6001 10.7877 26.2986 10.0035 25.0056 9.99805H25.0019H24.9983C23.5229 10.0053 20.9168 10.9901 17.8475 12.6971C17.822 12.7117 15.3345 14.1269 13.85 15.1792C13.6603 15.3142 13.6184 15.5768 13.757 15.7646C13.8919 15.9488 14.1472 15.9889 14.3314 15.8576C15.6317 14.9366 17.8439 13.6509 18.2524 13.4248C21.1594 11.8072 23.6834 10.837 25.0038 10.8297" fill="white"/>
<defs>
<linearGradient id="paint0_linear_17169_364" x1="2.79757" y1="45.2024" x2="44.7027" y2="3.29727" gradientUnits="userSpaceOnUse">
<stop stop-color="#FF60AA"/>
<stop offset="0.4" stop-color="#FF0000"/>
<stop offset="0.6" stop-color="#FF0000"/>
<stop offset="1" stop-color="#FF60AA"/>
</linearGradient>
</defs>
</svg>
